<mxfile host="app.diagrams.net" agent="Mozilla/5.0 (Macintosh; Intel Mac OS X 10_15_7) AppleWebKit/537.36 (KHTML, like Gecko) Chrome/131.0.0.0 Safari/537.36" version="25.0.3">
  <diagram name="Page-1" id="bKTqbdVngHuCQH_LNruU">
    <mxGraphModel dx="1784" dy="491" grid="1" gridSize="10" guides="1" tooltips="1" connect="1" arrows="1" fold="1" page="1" pageScale="1" pageWidth="850" pageHeight="1100" math="0" shadow="0">
      <root>
        <mxCell id="0" />
        <mxCell id="1" parent="0" />
        <mxCell id="m4MN4DxPmNeIjjt1GpF7-4" value="" style="edgeStyle=orthogonalEdgeStyle;rounded=0;orthogonalLoop=1;jettySize=auto;html=1;" parent="1" edge="1">
          <mxGeometry relative="1" as="geometry">
            <mxPoint x="140" y="90" as="sourcePoint" />
            <mxPoint x="230" y="90" as="targetPoint" />
          </mxGeometry>
        </mxCell>
        <mxCell id="m4MN4DxPmNeIjjt1GpF7-14" value="" style="edgeStyle=orthogonalEdgeStyle;rounded=0;orthogonalLoop=1;jettySize=auto;html=1;" parent="1" source="m4MN4DxPmNeIjjt1GpF7-10" edge="1">
          <mxGeometry relative="1" as="geometry">
            <mxPoint x="365" y="90" as="targetPoint" />
          </mxGeometry>
        </mxCell>
        <mxCell id="m4MN4DxPmNeIjjt1GpF7-15" value="general" style="edgeLabel;html=1;align=center;verticalAlign=middle;resizable=0;points=[];" parent="m4MN4DxPmNeIjjt1GpF7-14" vertex="1" connectable="0">
          <mxGeometry x="-0.4154" y="-1" relative="1" as="geometry">
            <mxPoint x="11" y="-11" as="offset" />
          </mxGeometry>
        </mxCell>
        <mxCell id="m4MN4DxPmNeIjjt1GpF7-24" value="" style="edgeStyle=orthogonalEdgeStyle;rounded=0;orthogonalLoop=1;jettySize=auto;html=1;" parent="1" source="m4MN4DxPmNeIjjt1GpF7-10" edge="1">
          <mxGeometry relative="1" as="geometry">
            <mxPoint x="245" y="220" as="targetPoint" />
          </mxGeometry>
        </mxCell>
        <mxCell id="m4MN4DxPmNeIjjt1GpF7-25" value="Flight booking" style="edgeLabel;html=1;align=center;verticalAlign=middle;resizable=0;points=[];rotation=270;" parent="m4MN4DxPmNeIjjt1GpF7-24" vertex="1" connectable="0">
          <mxGeometry x="0.0875" y="1" relative="1" as="geometry">
            <mxPoint x="-16" y="-4" as="offset" />
          </mxGeometry>
        </mxCell>
        <mxCell id="m4MN4DxPmNeIjjt1GpF7-10" value="&lt;div&gt;&lt;b&gt;Model&lt;/b&gt;&lt;/div&gt;Classify the user input" style="rhombus;whiteSpace=wrap;html=1;" parent="1" vertex="1">
          <mxGeometry x="190" y="40" width="110" height="100" as="geometry" />
        </mxCell>
        <mxCell id="x5BIDB4iQdcf3Fxj9Z7d-86" value="" style="edgeStyle=orthogonalEdgeStyle;rounded=0;orthogonalLoop=1;jettySize=auto;html=1;" edge="1" parent="1" source="m4MN4DxPmNeIjjt1GpF7-16" target="x5BIDB4iQdcf3Fxj9Z7d-85">
          <mxGeometry relative="1" as="geometry" />
        </mxCell>
        <mxCell id="m4MN4DxPmNeIjjt1GpF7-16" value="&lt;b style=&quot;forced-color-adjust: none; color: rgb(0, 0, 0); font-family: Helvetica; font-size: 12px; font-style: normal; font-variant-ligatures: normal; font-variant-caps: normal; letter-spacing: normal; orphans: 2; text-align: center; text-indent: 0px; text-transform: none; widows: 2; word-spacing: 0px; -webkit-text-stroke-width: 0px; white-space: normal; background-color: rgb(251, 251, 251); text-decoration-thickness: initial; text-decoration-style: initial; text-decoration-color: initial;&quot;&gt;Model Response&lt;/b&gt;&lt;div style=&quot;forced-color-adjust: none; color: rgb(0, 0, 0); font-family: Helvetica; font-size: 12px; font-style: normal; font-variant-ligatures: normal; font-variant-caps: normal; font-weight: 400; letter-spacing: normal; orphans: 2; text-align: center; text-indent: 0px; text-transform: none; widows: 2; word-spacing: 0px; -webkit-text-stroke-width: 0px; white-space: normal; background-color: rgb(251, 251, 251); text-decoration-thickness: initial; text-decoration-style: initial; text-decoration-color: initial;&quot;&gt;Task: Respond to the user question&lt;/div&gt;" style="rounded=1;whiteSpace=wrap;html=1;" parent="1" vertex="1">
          <mxGeometry x="365" y="60" width="120" height="60" as="geometry" />
        </mxCell>
        <mxCell id="m4MN4DxPmNeIjjt1GpF7-20" value="" style="edgeStyle=orthogonalEdgeStyle;rounded=0;orthogonalLoop=1;jettySize=auto;html=1;" parent="1" source="m4MN4DxPmNeIjjt1GpF7-18" target="m4MN4DxPmNeIjjt1GpF7-10" edge="1">
          <mxGeometry relative="1" as="geometry" />
        </mxCell>
        <mxCell id="m4MN4DxPmNeIjjt1GpF7-21" value="User Input" style="edgeLabel;html=1;align=center;verticalAlign=middle;resizable=0;points=[];" parent="m4MN4DxPmNeIjjt1GpF7-20" vertex="1" connectable="0">
          <mxGeometry x="-0.05" y="2" relative="1" as="geometry">
            <mxPoint y="1" as="offset" />
          </mxGeometry>
        </mxCell>
        <mxCell id="m4MN4DxPmNeIjjt1GpF7-18" value="&lt;b&gt;START&lt;/b&gt;" style="rounded=1;whiteSpace=wrap;html=1;" parent="1" vertex="1">
          <mxGeometry x="-20" y="60" width="120" height="60" as="geometry" />
        </mxCell>
        <mxCell id="x5BIDB4iQdcf3Fxj9Z7d-4" value="" style="edgeStyle=orthogonalEdgeStyle;rounded=0;orthogonalLoop=1;jettySize=auto;html=1;" edge="1" parent="1" source="x5BIDB4iQdcf3Fxj9Z7d-2" target="x5BIDB4iQdcf3Fxj9Z7d-3">
          <mxGeometry relative="1" as="geometry" />
        </mxCell>
        <mxCell id="x5BIDB4iQdcf3Fxj9Z7d-45" style="edgeStyle=orthogonalEdgeStyle;rounded=0;orthogonalLoop=1;jettySize=auto;html=1;exitX=0.5;exitY=1;exitDx=0;exitDy=0;entryX=0.5;entryY=0;entryDx=0;entryDy=0;dashed=1;" edge="1" parent="1" source="x5BIDB4iQdcf3Fxj9Z7d-2" target="x5BIDB4iQdcf3Fxj9Z7d-15">
          <mxGeometry relative="1" as="geometry" />
        </mxCell>
        <mxCell id="x5BIDB4iQdcf3Fxj9Z7d-69" value="input" style="edgeLabel;html=1;align=center;verticalAlign=middle;resizable=0;points=[];" vertex="1" connectable="0" parent="x5BIDB4iQdcf3Fxj9Z7d-45">
          <mxGeometry x="0.1552" y="5" relative="1" as="geometry">
            <mxPoint as="offset" />
          </mxGeometry>
        </mxCell>
        <mxCell id="x5BIDB4iQdcf3Fxj9Z7d-2" value="&lt;meta charset=&quot;utf-8&quot;&gt;&lt;b style=&quot;forced-color-adjust: none; color: rgb(0, 0, 0); font-family: Helvetica; font-size: 12px; font-style: normal; font-variant-ligatures: normal; font-variant-caps: normal; letter-spacing: normal; orphans: 2; text-align: center; text-indent: 0px; text-transform: none; widows: 2; word-spacing: 0px; -webkit-text-stroke-width: 0px; white-space: normal; background-color: rgb(251, 251, 251); text-decoration-thickness: initial; text-decoration-style: initial; text-decoration-color: initial;&quot;&gt;Model&lt;/b&gt;&lt;br style=&quot;forced-color-adjust: none; color: rgb(0, 0, 0); font-family: Helvetica; font-size: 12px; font-style: normal; font-variant-ligatures: normal; font-variant-caps: normal; font-weight: 400; letter-spacing: normal; orphans: 2; text-align: center; text-indent: 0px; text-transform: none; widows: 2; word-spacing: 0px; -webkit-text-stroke-width: 0px; white-space: normal; background-color: rgb(251, 251, 251); text-decoration-thickness: initial; text-decoration-style: initial; text-decoration-color: initial;&quot;&gt;&lt;span style=&quot;color: rgb(0, 0, 0); font-family: Helvetica; font-size: 12px; font-style: normal; font-variant-ligatures: normal; font-variant-caps: normal; font-weight: 400; letter-spacing: normal; orphans: 2; text-align: center; text-indent: 0px; text-transform: none; widows: 2; word-spacing: 0px; -webkit-text-stroke-width: 0px; white-space: normal; background-color: rgb(251, 251, 251); text-decoration-thickness: initial; text-decoration-style: initial; text-decoration-color: initial; display: inline !important; float: none;&quot;&gt;Extract and get the required booking details from the user.&lt;/span&gt;" style="rounded=0;whiteSpace=wrap;html=1;" vertex="1" parent="1">
          <mxGeometry x="190" y="220" width="120" height="60" as="geometry" />
        </mxCell>
        <mxCell id="x5BIDB4iQdcf3Fxj9Z7d-9" value="" style="edgeStyle=orthogonalEdgeStyle;rounded=0;orthogonalLoop=1;jettySize=auto;html=1;" edge="1" parent="1" source="x5BIDB4iQdcf3Fxj9Z7d-3" target="x5BIDB4iQdcf3Fxj9Z7d-8">
          <mxGeometry relative="1" as="geometry" />
        </mxCell>
        <mxCell id="x5BIDB4iQdcf3Fxj9Z7d-3" value="&lt;b&gt;Model&lt;br&gt;&lt;/b&gt;If user provided all required booking details respond &quot;positive&quot; else respond &quot;negative&quot;" style="whiteSpace=wrap;html=1;rounded=0;" vertex="1" parent="1">
          <mxGeometry x="350" y="205" width="120" height="90" as="geometry" />
        </mxCell>
        <mxCell id="x5BIDB4iQdcf3Fxj9Z7d-11" value="" style="edgeStyle=orthogonalEdgeStyle;rounded=0;orthogonalLoop=1;jettySize=auto;html=1;" edge="1" parent="1" source="x5BIDB4iQdcf3Fxj9Z7d-8" target="x5BIDB4iQdcf3Fxj9Z7d-10">
          <mxGeometry relative="1" as="geometry" />
        </mxCell>
        <mxCell id="x5BIDB4iQdcf3Fxj9Z7d-12" value="positive" style="edgeLabel;html=1;align=center;verticalAlign=middle;resizable=0;points=[];" vertex="1" connectable="0" parent="x5BIDB4iQdcf3Fxj9Z7d-11">
          <mxGeometry x="0.0833" y="-1" relative="1" as="geometry">
            <mxPoint x="8" y="-9" as="offset" />
          </mxGeometry>
        </mxCell>
        <mxCell id="x5BIDB4iQdcf3Fxj9Z7d-42" value="" style="edgeStyle=orthogonalEdgeStyle;rounded=0;orthogonalLoop=1;jettySize=auto;html=1;" edge="1" parent="1" source="x5BIDB4iQdcf3Fxj9Z7d-8" target="x5BIDB4iQdcf3Fxj9Z7d-41">
          <mxGeometry relative="1" as="geometry" />
        </mxCell>
        <mxCell id="x5BIDB4iQdcf3Fxj9Z7d-43" value="negative" style="edgeLabel;html=1;align=center;verticalAlign=middle;resizable=0;points=[];" vertex="1" connectable="0" parent="x5BIDB4iQdcf3Fxj9Z7d-42">
          <mxGeometry x="-0.1247" y="3" relative="1" as="geometry">
            <mxPoint y="-7" as="offset" />
          </mxGeometry>
        </mxCell>
        <mxCell id="x5BIDB4iQdcf3Fxj9Z7d-8" value="&lt;b&gt;Router&lt;/b&gt;&lt;div&gt;&lt;br&gt;&lt;/div&gt;" style="rhombus;whiteSpace=wrap;html=1;" vertex="1" parent="1">
          <mxGeometry x="370" y="360" width="80" height="80" as="geometry" />
        </mxCell>
        <mxCell id="x5BIDB4iQdcf3Fxj9Z7d-38" style="edgeStyle=orthogonalEdgeStyle;rounded=0;orthogonalLoop=1;jettySize=auto;html=1;exitX=0;exitY=0.5;exitDx=0;exitDy=0;entryX=0.5;entryY=0;entryDx=0;entryDy=0;dashed=1;" edge="1" parent="1" source="x5BIDB4iQdcf3Fxj9Z7d-10" target="x5BIDB4iQdcf3Fxj9Z7d-33">
          <mxGeometry relative="1" as="geometry" />
        </mxCell>
        <mxCell id="x5BIDB4iQdcf3Fxj9Z7d-68" value="input" style="edgeLabel;html=1;align=center;verticalAlign=middle;resizable=0;points=[];" vertex="1" connectable="0" parent="x5BIDB4iQdcf3Fxj9Z7d-38">
          <mxGeometry x="0.2668" relative="1" as="geometry">
            <mxPoint as="offset" />
          </mxGeometry>
        </mxCell>
        <mxCell id="x5BIDB4iQdcf3Fxj9Z7d-21" value="" style="edgeStyle=orthogonalEdgeStyle;rounded=0;orthogonalLoop=1;jettySize=auto;html=1;" edge="1" parent="1" source="x5BIDB4iQdcf3Fxj9Z7d-10" target="x5BIDB4iQdcf3Fxj9Z7d-20">
          <mxGeometry relative="1" as="geometry" />
        </mxCell>
        <mxCell id="x5BIDB4iQdcf3Fxj9Z7d-10" value="&lt;b&gt;Model&lt;/b&gt;&lt;br&gt;&lt;div&gt;Verify departure date by calling lambda. Returns &quot;positive&quot; if date &amp;gt;= current date else asks for valid date.&lt;/div&gt;" style="whiteSpace=wrap;html=1;" vertex="1" parent="1">
          <mxGeometry x="180" y="350" width="120" height="100" as="geometry" />
        </mxCell>
        <mxCell id="x5BIDB4iQdcf3Fxj9Z7d-46" value="" style="edgeStyle=orthogonalEdgeStyle;rounded=0;orthogonalLoop=1;jettySize=auto;html=1;" edge="1" parent="1" source="x5BIDB4iQdcf3Fxj9Z7d-15" target="x5BIDB4iQdcf3Fxj9Z7d-16">
          <mxGeometry relative="1" as="geometry" />
        </mxCell>
        <mxCell id="x5BIDB4iQdcf3Fxj9Z7d-15" value="&lt;meta charset=&quot;utf-8&quot;&gt;&lt;b style=&quot;forced-color-adjust: none; color: rgb(0, 0, 0); font-family: Helvetica; font-size: 12px; font-style: normal; font-variant-ligatures: normal; font-variant-caps: normal; letter-spacing: normal; orphans: 2; text-align: center; text-indent: 0px; text-transform: none; widows: 2; word-spacing: 0px; -webkit-text-stroke-width: 0px; white-space: normal; background-color: rgb(251, 251, 251); text-decoration-thickness: initial; text-decoration-style: initial; text-decoration-color: initial;&quot;&gt;Output&lt;/b&gt;" style="rounded=1;whiteSpace=wrap;html=1;" vertex="1" parent="1">
          <mxGeometry x="670" y="370" width="120" height="60" as="geometry" />
        </mxCell>
        <mxCell id="x5BIDB4iQdcf3Fxj9Z7d-16" value="&lt;b&gt;END&lt;/b&gt;" style="rounded=1;whiteSpace=wrap;html=1;" vertex="1" parent="1">
          <mxGeometry x="830" y="370" width="120" height="60" as="geometry" />
        </mxCell>
        <mxCell id="x5BIDB4iQdcf3Fxj9Z7d-23" value="" style="edgeStyle=orthogonalEdgeStyle;rounded=0;orthogonalLoop=1;jettySize=auto;html=1;" edge="1" parent="1" source="x5BIDB4iQdcf3Fxj9Z7d-20" target="x5BIDB4iQdcf3Fxj9Z7d-22">
          <mxGeometry relative="1" as="geometry" />
        </mxCell>
        <mxCell id="x5BIDB4iQdcf3Fxj9Z7d-26" value="positive" style="edgeLabel;html=1;align=center;verticalAlign=middle;resizable=0;points=[];" vertex="1" connectable="0" parent="x5BIDB4iQdcf3Fxj9Z7d-23">
          <mxGeometry x="-0.6" y="3" relative="1" as="geometry">
            <mxPoint x="14" y="-7" as="offset" />
          </mxGeometry>
        </mxCell>
        <mxCell id="x5BIDB4iQdcf3Fxj9Z7d-28" value="" style="edgeStyle=orthogonalEdgeStyle;rounded=0;orthogonalLoop=1;jettySize=auto;html=1;" edge="1" parent="1" source="x5BIDB4iQdcf3Fxj9Z7d-20" target="x5BIDB4iQdcf3Fxj9Z7d-27">
          <mxGeometry relative="1" as="geometry" />
        </mxCell>
        <mxCell id="x5BIDB4iQdcf3Fxj9Z7d-29" value="Invalid" style="edgeLabel;html=1;align=center;verticalAlign=middle;resizable=0;points=[];" vertex="1" connectable="0" parent="x5BIDB4iQdcf3Fxj9Z7d-28">
          <mxGeometry x="-0.0039" y="-5" relative="1" as="geometry">
            <mxPoint y="-5" as="offset" />
          </mxGeometry>
        </mxCell>
        <mxCell id="x5BIDB4iQdcf3Fxj9Z7d-20" value="&lt;b&gt;Router&lt;/b&gt;" style="rhombus;whiteSpace=wrap;html=1;" vertex="1" parent="1">
          <mxGeometry x="200" y="480" width="80" height="80" as="geometry" />
        </mxCell>
        <mxCell id="x5BIDB4iQdcf3Fxj9Z7d-48" value="" style="edgeStyle=orthogonalEdgeStyle;rounded=0;orthogonalLoop=1;jettySize=auto;html=1;" edge="1" parent="1" source="x5BIDB4iQdcf3Fxj9Z7d-22" target="x5BIDB4iQdcf3Fxj9Z7d-47">
          <mxGeometry relative="1" as="geometry" />
        </mxCell>
        <mxCell id="x5BIDB4iQdcf3Fxj9Z7d-61" style="edgeStyle=orthogonalEdgeStyle;rounded=0;orthogonalLoop=1;jettySize=auto;html=1;exitX=0.5;exitY=0;exitDx=0;exitDy=0;entryX=0.5;entryY=0;entryDx=0;entryDy=0;dashed=1;" edge="1" parent="1" source="x5BIDB4iQdcf3Fxj9Z7d-22" target="x5BIDB4iQdcf3Fxj9Z7d-56">
          <mxGeometry relative="1" as="geometry" />
        </mxCell>
        <mxCell id="x5BIDB4iQdcf3Fxj9Z7d-67" value="input" style="edgeLabel;html=1;align=center;verticalAlign=middle;resizable=0;points=[];" vertex="1" connectable="0" parent="x5BIDB4iQdcf3Fxj9Z7d-61">
          <mxGeometry x="-0.1319" y="1" relative="1" as="geometry">
            <mxPoint as="offset" />
          </mxGeometry>
        </mxCell>
        <mxCell id="x5BIDB4iQdcf3Fxj9Z7d-66" value="input" style="edgeStyle=orthogonalEdgeStyle;rounded=0;orthogonalLoop=1;jettySize=auto;html=1;exitX=0.5;exitY=1;exitDx=0;exitDy=0;entryX=0;entryY=0.5;entryDx=0;entryDy=0;dashed=1;" edge="1" parent="1" source="x5BIDB4iQdcf3Fxj9Z7d-22" target="x5BIDB4iQdcf3Fxj9Z7d-63">
          <mxGeometry x="0.0988" y="10" relative="1" as="geometry">
            <mxPoint as="offset" />
          </mxGeometry>
        </mxCell>
        <mxCell id="x5BIDB4iQdcf3Fxj9Z7d-22" value="&lt;b&gt;Model&lt;/b&gt;&lt;div&gt;Fetch IATACodes.&lt;br&gt;Asks to choose airport if the city has multiple airports else returns IATACodes.&lt;/div&gt;" style="whiteSpace=wrap;html=1;" vertex="1" parent="1">
          <mxGeometry x="340" y="475" width="120" height="90" as="geometry" />
        </mxCell>
        <mxCell id="x5BIDB4iQdcf3Fxj9Z7d-32" value="" style="edgeStyle=orthogonalEdgeStyle;rounded=0;orthogonalLoop=1;jettySize=auto;html=1;" edge="1" parent="1" source="x5BIDB4iQdcf3Fxj9Z7d-27" target="x5BIDB4iQdcf3Fxj9Z7d-31">
          <mxGeometry relative="1" as="geometry" />
        </mxCell>
        <mxCell id="x5BIDB4iQdcf3Fxj9Z7d-34" value="" style="edgeStyle=orthogonalEdgeStyle;rounded=0;orthogonalLoop=1;jettySize=auto;html=1;" edge="1" parent="1" source="x5BIDB4iQdcf3Fxj9Z7d-27" target="x5BIDB4iQdcf3Fxj9Z7d-33">
          <mxGeometry relative="1" as="geometry" />
        </mxCell>
        <mxCell id="x5BIDB4iQdcf3Fxj9Z7d-27" value="&lt;div&gt;&lt;b&gt;Lambda&lt;/b&gt;&lt;/div&gt;Store current conversation" style="rounded=0;whiteSpace=wrap;html=1;" vertex="1" parent="1">
          <mxGeometry x="20" y="490" width="120" height="60" as="geometry" />
        </mxCell>
        <mxCell id="x5BIDB4iQdcf3Fxj9Z7d-31" value="DynamoDB" style="shape=datastore;whiteSpace=wrap;html=1;" vertex="1" parent="1">
          <mxGeometry x="45" y="390" width="70" height="60" as="geometry" />
        </mxCell>
        <mxCell id="x5BIDB4iQdcf3Fxj9Z7d-40" value="" style="edgeStyle=orthogonalEdgeStyle;rounded=0;orthogonalLoop=1;jettySize=auto;html=1;" edge="1" parent="1" source="x5BIDB4iQdcf3Fxj9Z7d-33" target="x5BIDB4iQdcf3Fxj9Z7d-39">
          <mxGeometry relative="1" as="geometry" />
        </mxCell>
        <mxCell id="x5BIDB4iQdcf3Fxj9Z7d-33" value="&lt;b&gt;Output&lt;/b&gt;" style="whiteSpace=wrap;html=1;rounded=0;" vertex="1" parent="1">
          <mxGeometry x="-140" y="490" width="120" height="60" as="geometry" />
        </mxCell>
        <mxCell id="x5BIDB4iQdcf3Fxj9Z7d-39" value="&lt;b&gt;END&lt;/b&gt;" style="rounded=1;whiteSpace=wrap;html=1;" vertex="1" parent="1">
          <mxGeometry x="-310" y="490" width="120" height="60" as="geometry" />
        </mxCell>
        <mxCell id="x5BIDB4iQdcf3Fxj9Z7d-44" value="" style="edgeStyle=orthogonalEdgeStyle;rounded=0;orthogonalLoop=1;jettySize=auto;html=1;" edge="1" parent="1" source="x5BIDB4iQdcf3Fxj9Z7d-41" target="x5BIDB4iQdcf3Fxj9Z7d-15">
          <mxGeometry relative="1" as="geometry" />
        </mxCell>
        <mxCell id="x5BIDB4iQdcf3Fxj9Z7d-84" value="" style="edgeStyle=orthogonalEdgeStyle;rounded=0;orthogonalLoop=1;jettySize=auto;html=1;" edge="1" parent="1" source="x5BIDB4iQdcf3Fxj9Z7d-41" target="x5BIDB4iQdcf3Fxj9Z7d-79">
          <mxGeometry relative="1" as="geometry" />
        </mxCell>
        <mxCell id="x5BIDB4iQdcf3Fxj9Z7d-41" value="&lt;div&gt;&lt;b&gt;Lambda&lt;/b&gt;&lt;/div&gt;Store current conversation" style="rounded=0;whiteSpace=wrap;html=1;" vertex="1" parent="1">
          <mxGeometry x="510" y="370" width="120" height="60" as="geometry" />
        </mxCell>
        <mxCell id="x5BIDB4iQdcf3Fxj9Z7d-50" value="" style="edgeStyle=orthogonalEdgeStyle;rounded=0;orthogonalLoop=1;jettySize=auto;html=1;" edge="1" parent="1" source="x5BIDB4iQdcf3Fxj9Z7d-47" target="x5BIDB4iQdcf3Fxj9Z7d-49">
          <mxGeometry relative="1" as="geometry" />
        </mxCell>
        <mxCell id="x5BIDB4iQdcf3Fxj9Z7d-47" value="&lt;b&gt;Model&lt;/b&gt;&lt;div&gt;Classify into negative if input asks to choose else classify into negative&lt;/div&gt;" style="rounded=0;whiteSpace=wrap;html=1;" vertex="1" parent="1">
          <mxGeometry x="520" y="485" width="120" height="70" as="geometry" />
        </mxCell>
        <mxCell id="x5BIDB4iQdcf3Fxj9Z7d-54" value="" style="edgeStyle=orthogonalEdgeStyle;rounded=0;orthogonalLoop=1;jettySize=auto;html=1;" edge="1" parent="1" source="x5BIDB4iQdcf3Fxj9Z7d-49" target="x5BIDB4iQdcf3Fxj9Z7d-53">
          <mxGeometry relative="1" as="geometry" />
        </mxCell>
        <mxCell id="x5BIDB4iQdcf3Fxj9Z7d-62" value="negative" style="edgeLabel;html=1;align=center;verticalAlign=middle;resizable=0;points=[];" vertex="1" connectable="0" parent="x5BIDB4iQdcf3Fxj9Z7d-54">
          <mxGeometry x="0.3231" y="2" relative="1" as="geometry">
            <mxPoint x="-10" y="-8" as="offset" />
          </mxGeometry>
        </mxCell>
        <mxCell id="x5BIDB4iQdcf3Fxj9Z7d-64" value="" style="edgeStyle=orthogonalEdgeStyle;rounded=0;orthogonalLoop=1;jettySize=auto;html=1;" edge="1" parent="1" source="x5BIDB4iQdcf3Fxj9Z7d-49" target="x5BIDB4iQdcf3Fxj9Z7d-63">
          <mxGeometry relative="1" as="geometry" />
        </mxCell>
        <mxCell id="x5BIDB4iQdcf3Fxj9Z7d-65" value="positive" style="edgeLabel;html=1;align=center;verticalAlign=middle;resizable=0;points=[];" vertex="1" connectable="0" parent="x5BIDB4iQdcf3Fxj9Z7d-64">
          <mxGeometry x="-0.1464" y="-1" relative="1" as="geometry">
            <mxPoint as="offset" />
          </mxGeometry>
        </mxCell>
        <mxCell id="x5BIDB4iQdcf3Fxj9Z7d-49" value="&lt;b&gt;Router&lt;/b&gt;" style="rhombus;whiteSpace=wrap;html=1;" vertex="1" parent="1">
          <mxGeometry x="700" y="480" width="80" height="80" as="geometry" />
        </mxCell>
        <mxCell id="x5BIDB4iQdcf3Fxj9Z7d-57" value="" style="edgeStyle=orthogonalEdgeStyle;rounded=0;orthogonalLoop=1;jettySize=auto;html=1;" edge="1" parent="1" source="x5BIDB4iQdcf3Fxj9Z7d-53" target="x5BIDB4iQdcf3Fxj9Z7d-56">
          <mxGeometry relative="1" as="geometry" />
        </mxCell>
        <mxCell id="x5BIDB4iQdcf3Fxj9Z7d-83" value="" style="edgeStyle=orthogonalEdgeStyle;rounded=0;orthogonalLoop=1;jettySize=auto;html=1;" edge="1" parent="1" source="x5BIDB4iQdcf3Fxj9Z7d-53" target="x5BIDB4iQdcf3Fxj9Z7d-80">
          <mxGeometry relative="1" as="geometry" />
        </mxCell>
        <mxCell id="x5BIDB4iQdcf3Fxj9Z7d-53" value="&lt;div&gt;&lt;b&gt;Lambda&lt;/b&gt;&lt;/div&gt;Store current conversation" style="rounded=0;whiteSpace=wrap;html=1;" vertex="1" parent="1">
          <mxGeometry x="840" y="490" width="120" height="60" as="geometry" />
        </mxCell>
        <mxCell id="x5BIDB4iQdcf3Fxj9Z7d-59" value="" style="edgeStyle=orthogonalEdgeStyle;rounded=0;orthogonalLoop=1;jettySize=auto;html=1;" edge="1" parent="1" source="x5BIDB4iQdcf3Fxj9Z7d-56" target="x5BIDB4iQdcf3Fxj9Z7d-58">
          <mxGeometry relative="1" as="geometry" />
        </mxCell>
        <mxCell id="x5BIDB4iQdcf3Fxj9Z7d-56" value="&lt;meta charset=&quot;utf-8&quot;&gt;&lt;b style=&quot;forced-color-adjust: none; color: rgb(0, 0, 0); font-family: Helvetica; font-size: 12px; font-style: normal; font-variant-ligatures: normal; font-variant-caps: normal; letter-spacing: normal; orphans: 2; text-align: center; text-indent: 0px; text-transform: none; widows: 2; word-spacing: 0px; -webkit-text-stroke-width: 0px; white-space: normal; background-color: rgb(251, 251, 251); text-decoration-thickness: initial; text-decoration-style: initial; text-decoration-color: initial;&quot;&gt;Output&lt;/b&gt;" style="rounded=1;whiteSpace=wrap;html=1;" vertex="1" parent="1">
          <mxGeometry x="990" y="490" width="120" height="60" as="geometry" />
        </mxCell>
        <mxCell id="x5BIDB4iQdcf3Fxj9Z7d-58" value="&lt;b&gt;END&lt;/b&gt;" style="rounded=1;whiteSpace=wrap;html=1;" vertex="1" parent="1">
          <mxGeometry x="1140" y="490" width="120" height="60" as="geometry" />
        </mxCell>
        <mxCell id="x5BIDB4iQdcf3Fxj9Z7d-71" value="" style="edgeStyle=orthogonalEdgeStyle;rounded=0;orthogonalLoop=1;jettySize=auto;html=1;" edge="1" parent="1" source="x5BIDB4iQdcf3Fxj9Z7d-63" target="x5BIDB4iQdcf3Fxj9Z7d-70">
          <mxGeometry relative="1" as="geometry" />
        </mxCell>
        <mxCell id="x5BIDB4iQdcf3Fxj9Z7d-63" value="&lt;b&gt;Lambda&lt;/b&gt;&lt;div&gt;Call_Amadeus&lt;/div&gt;" style="whiteSpace=wrap;html=1;" vertex="1" parent="1">
          <mxGeometry x="680" y="610" width="120" height="60" as="geometry" />
        </mxCell>
        <mxCell id="x5BIDB4iQdcf3Fxj9Z7d-77" value="" style="edgeStyle=orthogonalEdgeStyle;rounded=0;orthogonalLoop=1;jettySize=auto;html=1;" edge="1" parent="1" source="x5BIDB4iQdcf3Fxj9Z7d-70" target="x5BIDB4iQdcf3Fxj9Z7d-76">
          <mxGeometry relative="1" as="geometry" />
        </mxCell>
        <mxCell id="x5BIDB4iQdcf3Fxj9Z7d-70" value="&lt;b&gt;Model&lt;/b&gt;&lt;div&gt;Transforms flight offers in conversational manner&lt;/div&gt;" style="whiteSpace=wrap;html=1;" vertex="1" parent="1">
          <mxGeometry x="680" y="700" width="120" height="70" as="geometry" />
        </mxCell>
        <mxCell id="x5BIDB4iQdcf3Fxj9Z7d-75" value="" style="edgeStyle=orthogonalEdgeStyle;rounded=0;orthogonalLoop=1;jettySize=auto;html=1;" edge="1" parent="1" source="x5BIDB4iQdcf3Fxj9Z7d-72" target="x5BIDB4iQdcf3Fxj9Z7d-74">
          <mxGeometry relative="1" as="geometry" />
        </mxCell>
        <mxCell id="x5BIDB4iQdcf3Fxj9Z7d-72" value="&lt;b&gt;Output&lt;/b&gt;" style="rounded=1;whiteSpace=wrap;html=1;" vertex="1" parent="1">
          <mxGeometry x="680" y="890" width="120" height="60" as="geometry" />
        </mxCell>
        <mxCell id="x5BIDB4iQdcf3Fxj9Z7d-74" value="&lt;b&gt;END&lt;/b&gt;" style="rounded=1;whiteSpace=wrap;html=1;" vertex="1" parent="1">
          <mxGeometry x="680" y="980" width="120" height="60" as="geometry" />
        </mxCell>
        <mxCell id="x5BIDB4iQdcf3Fxj9Z7d-78" value="" style="edgeStyle=orthogonalEdgeStyle;rounded=0;orthogonalLoop=1;jettySize=auto;html=1;" edge="1" parent="1" source="x5BIDB4iQdcf3Fxj9Z7d-76" target="x5BIDB4iQdcf3Fxj9Z7d-72">
          <mxGeometry relative="1" as="geometry" />
        </mxCell>
        <mxCell id="x5BIDB4iQdcf3Fxj9Z7d-82" value="" style="edgeStyle=orthogonalEdgeStyle;rounded=0;orthogonalLoop=1;jettySize=auto;html=1;" edge="1" parent="1" source="x5BIDB4iQdcf3Fxj9Z7d-76" target="x5BIDB4iQdcf3Fxj9Z7d-81">
          <mxGeometry relative="1" as="geometry" />
        </mxCell>
        <mxCell id="x5BIDB4iQdcf3Fxj9Z7d-76" value="&lt;b&gt;Lambda&lt;/b&gt;&lt;br&gt;Stores conversation and passes model output" style="rounded=0;whiteSpace=wrap;html=1;" vertex="1" parent="1">
          <mxGeometry x="680" y="800" width="120" height="60" as="geometry" />
        </mxCell>
        <mxCell id="x5BIDB4iQdcf3Fxj9Z7d-79" value="DynamoDB" style="shape=datastore;whiteSpace=wrap;html=1;" vertex="1" parent="1">
          <mxGeometry x="535" y="250" width="70" height="60" as="geometry" />
        </mxCell>
        <mxCell id="x5BIDB4iQdcf3Fxj9Z7d-80" value="DynamoDB" style="shape=datastore;whiteSpace=wrap;html=1;" vertex="1" parent="1">
          <mxGeometry x="865" y="590" width="70" height="60" as="geometry" />
        </mxCell>
        <mxCell id="x5BIDB4iQdcf3Fxj9Z7d-81" value="DynamoDB" style="shape=datastore;whiteSpace=wrap;html=1;" vertex="1" parent="1">
          <mxGeometry x="850" y="800" width="70" height="60" as="geometry" />
        </mxCell>
        <mxCell id="x5BIDB4iQdcf3Fxj9Z7d-88" value="" style="edgeStyle=orthogonalEdgeStyle;rounded=0;orthogonalLoop=1;jettySize=auto;html=1;" edge="1" parent="1" source="x5BIDB4iQdcf3Fxj9Z7d-85" target="x5BIDB4iQdcf3Fxj9Z7d-87">
          <mxGeometry relative="1" as="geometry" />
        </mxCell>
        <mxCell id="x5BIDB4iQdcf3Fxj9Z7d-85" value="&lt;meta charset=&quot;utf-8&quot;&gt;&lt;b style=&quot;forced-color-adjust: none; color: rgb(0, 0, 0); font-family: Helvetica; font-size: 12px; font-style: normal; font-variant-ligatures: normal; font-variant-caps: normal; letter-spacing: normal; orphans: 2; text-align: center; text-indent: 0px; text-transform: none; widows: 2; word-spacing: 0px; -webkit-text-stroke-width: 0px; white-space: normal; background-color: rgb(251, 251, 251); text-decoration-thickness: initial; text-decoration-style: initial; text-decoration-color: initial;&quot;&gt;Output&lt;/b&gt;" style="rounded=1;whiteSpace=wrap;html=1;" vertex="1" parent="1">
          <mxGeometry x="535" y="60" width="120" height="60" as="geometry" />
        </mxCell>
        <mxCell id="x5BIDB4iQdcf3Fxj9Z7d-87" value="&lt;b&gt;END&lt;/b&gt;" style="rounded=1;whiteSpace=wrap;html=1;" vertex="1" parent="1">
          <mxGeometry x="690" y="60" width="120" height="60" as="geometry" />
        </mxCell>
      </root>
    </mxGraphModel>
  </diagram>
</mxfile>
